<?xml version="1.0" encoding="utf-8"?>
<!-- Generator: Adobe Illustrator 22.1.0, SVG Export Plug-In . SVG Version: 6.00 Build 0)  -->
<svg version="1.1" id="图层_1" xmlns="http://www.w3.org/2000/svg" xmlns:xlink="http://www.w3.org/1999/xlink" x="0px" y="0px"
	 viewBox="0 0 1536 2048" style="enable-background:new 0 0 1536 2048;" xml:space="preserve">
<style type="text/css">
	.st0{fill:#464D9B;}
	.st1{font-family:'Helvetica';}
	.st2{font-size:72px;}
	.st3{font-size:21px;}
	.st4{fill:#FFFFFF;}
	.st5{fill:#C1C5DE;}
	.st6{fill:#B9B9D8;}
	.st7{fill:#7377B3;}
	.st8{fill:#727AB4;}
</style>
<text transform="matrix(1 0 0 1 490.3545 381.2222)" class="st0 st1 st2">tag x00</text>
<text transform="matrix(1 0 0 1 520.832 428.3335)" class="st0 st1 st3">TAG THE WORLD</text>

<g>
	<g>
		<path class="st0" d="M544.2,170.3c20.1,0,40.4,0,60.4,0c0.9,0.2,1.6,0,2.4,0.2c1.4,0.2,2.6,0.5,3.8,1c3.3,1.6,5.7,4,7.4,7.1
			c1,2.1,1.6,4.2,1.7,6.4c0,0.9,0,1.9,0,2.8c0,26.8,0,53.9,0,80.7c0,3.8-0.3,7.6-1.4,11.4c-0.7,2.8-1.7,5.5-2.9,8.3
			c-1.7,3.5-3.8,6.8-6.2,9.7c-2.6,2.9-5.4,5.5-8.5,7.8c-1.9,1.2-3.8,2.4-5.7,3.5c-2.6,1.4-5.4,2.4-8.1,3.1c-2.6,0.7-5.4,1.2-8.1,1.6
			c-2.3,0.2-4.3,0.2-6.6,0.2c-3.8-0.2-7.8-0.9-11.4-2.1c-2.9-0.9-5.5-2.1-8.3-3.5c-2.9-1.6-5.5-3.5-8-5.5c-3.1-2.8-5.9-5.9-8.1-9.4
			c-3.6-5.5-5.9-11.4-6.8-18c-0.3-2.1-0.3-4.2-0.3-6.2c0-27.4,0-54.7,0-82.3c0-1.9,0.2-3.8,0.7-5.7c0.7-2.1,1.6-4,2.9-5.5
			c2.1-2.4,4.7-4.2,7.8-5c0.9-0.2,1.6-0.3,2.4-0.3C543.2,170.3,543.7,170.3,544.2,170.3z"/>
		<path class="st4" d="M544.2,170.3c-0.2,0.2-0.3,0.2-0.3,0.2c-2.1,0-4,0.5-5.7,1.4c-4.5,2.1-7.3,5.7-8.5,10.4
			c-0.3,1-0.3,2.3-0.5,3.5c-0.2,2.3,0,4.5,0,6.8c0,25.1,0,50.2,0,75.5c0,1.6,0,2.9,0.2,4.5c0.2,3.5,0.9,7.1,1.9,10.4
			c4,11.8,11.4,20.6,22.5,26.3c4,2.1,8.3,3.5,12.8,4.3c3.3,0.5,6.8,0.9,10.2,0.5c11.3-0.7,21.1-4.8,29.3-12.6
			c6.4-6.1,10.6-13.5,12.6-22c0.7-2.9,1-5.9,1-9c0-0.9,0-1.9,0-2.8c0-26.2,0-52.3,0-78.5c0-0.7,0-1.6,0-2.3
			c0.2-6.9-4-13.2-10.2-15.4c-1.4-0.5-2.9-0.7-4.5-0.9c-0.2,0-0.3,0-0.3-0.2c27.5,0,55.3,0,82.8,0c0,31.9,0,63.7,0,95.4
			c0,0,0,0-0.2,0c-0.2-0.2-0.2-0.3-0.2-0.3c-0.2-4-1-8-2.4-11.8c-1.4-4-3.3-7.8-5.9-11.3c-1.4-1.9-2.9-3.6-4.5-5.4
			c-14.9-15.1-30-30-44.9-44.9c-0.2-0.2-0.3-0.5-0.5-0.3c-0.2,0-0.2,0.3-0.2,0.7c0,25.6,0,51.3,0,76.9c0,3.1-0.3,6.4-0.9,9.5
			c-0.7,4-1.9,7.8-3.5,11.4c-1.6,3.6-3.5,6.9-5.7,10c-1,1.4-2.1,2.6-3.1,4c-0.3,0.3-0.3,0.5,0.2,0.9c3.5,2.6,7.1,4.5,11.3,5.9
			c3.1,1,6.4,1.9,9.7,2.3c2.1,0.2,4.2,0.3,6.2,0.3c4-0.2,8-0.7,12-1.9c2.9-0.9,5.7-2.1,8.5-3.5c2.9-1.6,5.5-3.5,8-5.5
			c0.9-0.7,1.7-1.6,2.6-2.4c1.7-1.7,3.3-3.5,4.7-5.5c1.6-2.3,2.9-4.5,4.2-6.9c1.9-3.8,3.1-8,3.8-12.1c0.2-1.6,0.3-2.9,0.5-4.5
			c0-0.2,0-0.3,0.2-0.3h0.2c0,17.1,0,34.5,0,51.6c-55.6,0-111,0-166.6,0c0-50.7,0-101.7,0-152.4
			C528.6,170.3,536.4,170.3,544.2,170.3z"/>
		<path class="st0" d="M687.5,271.1c-0.3,5.9-1.7,11.6-4.3,17c-5.4,11.3-15.2,19.9-27,23.7c-2.9,1-5.9,1.6-9,1.9
			c-2.8,0.3-5.5,0.3-8.3,0.2c-8.7-0.7-16.6-3.5-23.7-8.7c-0.3-0.3-0.3-0.3,0-0.7c5.7-6.4,9.7-13.9,11.8-22.2c0.5-2.3,1-4.5,1.2-6.8
			c0.3-2.4,0.3-4.8,0.3-7.4c0-0.7,0-1.4,0-2.1c0-24.8,0-49.7,0-74.5c0-0.2,0-0.3,0-0.5c0.2,0,0.2,0.2,0.3,0.2
			c0.2,0.2,0.3,0.3,0.3,0.3c14.5,14.5,29.3,29.3,43.8,43.8c1.6,1.6,3.1,3.1,4.5,4.8c4.5,5.7,7.4,12.1,8.8,19.2
			c0.3,1.9,0.7,3.8,0.7,5.9c0,0.2,0,0.3,0,0.5c0,0.2,0,0.3,0,0.7c0,0.9,0,1.7,0,2.8c-0.2,0.2,0,0.3,0,0.7
			C687.5,270.6,687.5,270.9,687.5,271.1z"/>
		<path class="st5" d="M687.5,271.1c0-0.2,0-0.5,0-0.7l0,0l0,0C687.5,270.6,687.5,270.9,687.5,271.1L687.5,271.1L687.5,271.1z"/>
		<path class="st6" d="M687.5,266.4c0-0.2,0-0.3,0-0.7l0,0C687.5,266.1,687.5,266.2,687.5,266.4L687.5,266.4z"/>
		<path class="st7" d="M687.5,266.4L687.5,266.4c0,0.2,0,0.3,0,0.7C687.5,266.8,687.5,266.6,687.5,266.4z"/>
		<path class="st8" d="M687.5,270.4L687.5,270.4L687.5,270.4c-0.2-0.2-0.2-0.3,0-0.7C687.5,269.9,687.5,270.1,687.5,270.4z"/>
		<path class="st4" d="M574,219.1c-7.8-0.2-13.9-6.8-13.7-14.5c0.3-7.8,6.8-13.7,14.4-13.5s13.9,6.6,13.7,14.5
			C588,213.2,581.8,219.3,574,219.1z"/>
	</g>
</g>
</svg>
