<svg id="图层_1" data-name="图层 1" xmlns="http://www.w3.org/2000/svg" viewBox="0 0 362.27 89.88"><defs><style>.cls-1{font-size:72px;font-family:Helvetica, Helvetica;}.cls-1,.cls-2{fill:#464d9b;}.cls-3{fill:#fff;}.cls-4{fill:#c1c5de;}.cls-5{fill:#b9b9d8;}.cls-6{fill:#7377b3;}.cls-7{fill:#727ab4;}</style></defs><title>tag_x00_mini_logo</title><text class="cls-1" transform="translate(126.09 68.22)">tag x00</text><path class="cls-2" d="M377.7,313h34.89c.47.06.93,0,1.4.08a6.43,6.43,0,0,1,2.15.63,9,9,0,0,1,4.27,4.12,9.28,9.28,0,0,1,1,3.73c0,.53,0,1.05,0,1.57v46.62a26.49,26.49,0,0,1-.79,6.63,25.92,25.92,0,0,1-1.72,4.75,25.63,25.63,0,0,1-3.61,5.58,26.3,26.3,0,0,1-4.93,4.5,26.88,26.88,0,0,1-3.34,2,25.91,25.91,0,0,1-4.74,1.82,27.14,27.14,0,0,1-4.73.86,28.33,28.33,0,0,1-3.8.08,26.66,26.66,0,0,1-6.62-1.16,27,27,0,0,1-4.76-2,25.63,25.63,0,0,1-4.64-3.22,25.8,25.8,0,0,1-8.66-15.75,26.34,26.34,0,0,1-.25-3.65q0-23.73,0-47.47a11.09,11.09,0,0,1,.42-3.29,9.08,9.08,0,0,1,1.72-3.23,8.78,8.78,0,0,1,4.49-2.94,6.63,6.63,0,0,1,1.4-.18C377.12,313,377.41,313,377.7,313Z" transform="translate(-364.26 -313)"/><path class="cls-3" d="M377.7,313c-.07.08-.15.06-.23.06a8.08,8.08,0,0,0-3.32.78,8.85,8.85,0,0,0-4.92,6,10.64,10.64,0,0,0-.28,2c-.09,1.31,0,2.62,0,3.93q0,21.78,0,43.56c0,.85,0,1.71.05,2.56a24.65,24.65,0,0,0,1.14,6,26.21,26.21,0,0,0,20.44,17.65,26.23,26.23,0,0,0,5.86.34,25.92,25.92,0,0,0,16.93-7.28,25.18,25.18,0,0,0,7.26-12.72,24.38,24.38,0,0,0,.64-5.17c0-.54,0-1.08,0-1.63V323.72c0-.44,0-.88,0-1.32a9,9,0,0,0-5.91-8.86,9.12,9.12,0,0,0-2.58-.48c-.07,0-.16,0-.2-.05h47.83v55.14a.08.08,0,0,1-.08,0c-.09-.06-.08-.16-.09-.25a25.55,25.55,0,0,0-1.37-6.75,24.77,24.77,0,0,0-3.39-6.46,25.4,25.4,0,0,0-2.61-3.06L427,325.7c-.09-.08-.18-.27-.3-.23s0,.24,0,.37q0,22.2,0,44.41a29.87,29.87,0,0,1-.52,5.5,30.33,30.33,0,0,1-2,6.6,31.43,31.43,0,0,1-3.32,5.83c-.58.78-1.19,1.54-1.84,2.28-.2.23-.18.33.06.51a25.65,25.65,0,0,0,15.65,4.93,27.44,27.44,0,0,0,6.91-1.09,27.84,27.84,0,0,0,4.92-2,26.3,26.3,0,0,0,4.64-3.18c.52-.45,1-.89,1.5-1.38a26.66,26.66,0,0,0,5.13-7.2,25.78,25.78,0,0,0,2.23-7,24.5,24.5,0,0,0,.31-2.56.26.26,0,0,1,.08-.23.1.1,0,0,1,.09,0V401H364.26V313Q371,313,377.7,313Z" transform="translate(-364.26 -313)"/><path class="cls-2" d="M460.37,371.21a25.26,25.26,0,0,1-2.51,9.75,26.55,26.55,0,0,1-15.56,13.72,26.29,26.29,0,0,1-9.93,1.28,25.44,25.44,0,0,1-13.67-5c-.22-.17-.22-.17,0-.38a30.7,30.7,0,0,0,6.83-12.75,31,31,0,0,0,1-8.18c0-.4,0-.8,0-1.21V325.09a.32.32,0,0,1,.18.12c.08.07.15.15.23.23l25.35,25.34a33.39,33.39,0,0,1,2.61,2.83A25.17,25.17,0,0,1,460,364.76a19.14,19.14,0,0,1,.4,3.38,1.27,1.27,0,0,1,0,.34c0,.12,0,.24,0,.37v1.55c-.06.12,0,.25,0,.38A2.1,2.1,0,0,1,460.37,371.21Z" transform="translate(-364.26 -313)"/><path class="cls-4" d="M460.37,371.21a3.38,3.38,0,0,1,0-.45v0l0,0v.45h-.05Z" transform="translate(-364.26 -313)"/><path class="cls-5" d="M460.37,368.49a1.37,1.37,0,0,1,0-.35,0,0,0,0,1,0,0v.35S460.38,368.53,460.37,368.49Z" transform="translate(-364.26 -313)"/><path class="cls-6" d="M460.37,368.49h.05v.35A.57.57,0,0,1,460.37,368.49Z" transform="translate(-364.26 -313)"/><path class="cls-7" d="M460.42,370.76h-.05a.57.57,0,0,1,.05-.36Z" transform="translate(-364.26 -313)"/><path class="cls-3" d="M394.87,341.21a8.1,8.1,0,1,1,8.29-7.8A8.1,8.1,0,0,1,394.87,341.21Z" transform="translate(-364.26 -313)"/></svg>