<svg id="Layer_1" data-name="Layer 1" xmlns="http://www.w3.org/2000/svg" xmlns:xlink="http://www.w3.org/1999/xlink" viewBox="0 0 336 105.09"><defs><style>.cls-1{fill:url(#linear-gradient);}.cls-2{fill:url(#linear-gradient-2);}.cls-3{fill:url(#linear-gradient-3);}.cls-4{fill:url(#linear-gradient-4);}.cls-5{font-size:60px;fill:#fff;font-family:ArialMT, Arial;}.cls-6{letter-spacing:-0.11em;}</style><linearGradient id="linear-gradient" x1="56.69" y1="72.83" x2="109" y2="72.83" gradientUnits="userSpaceOnUse"><stop offset="0" stop-color="#fa816e"/><stop offset="0.41" stop-color="#f74a5c"/><stop offset="1" stop-color="#f51d2c"/></linearGradient><linearGradient id="linear-gradient-2" y1="52.54" x2="68.19" y2="52.54" gradientUnits="userSpaceOnUse"><stop offset="0" stop-color="#4285eb"/><stop offset="1" stop-color="#2ec7ff"/></linearGradient><linearGradient id="linear-gradient-3" x1="-250.31" y1="56.5" x2="-200" y2="56.5" gradientTransform="translate(250.31 42.99)" xlink:href="#linear-gradient-2"/><linearGradient id="linear-gradient-4" x1="-267.05" y1="317.95" x2="-267.21" y2="317.29" gradientTransform="matrix(47.2, 0, 0, -47.16, 12643.42, 15008.56)" gradientUnits="userSpaceOnUse"><stop offset="0" stop-color="#fa8e7d"/><stop offset="0.51" stop-color="#f74a5c"/><stop offset="1" stop-color="#f51d2c"/></linearGradient></defs><title>Tagx00图+白字</title><path class="cls-1" d="M108.82,79.37a22.57,22.57,0,0,0-2.25-7.25,30,30,0,0,0-8.29-8.48,4.54,4.54,0,0,0-.41-.33L67.57,41.83A6.71,6.71,0,0,0,57,47.25l-.28,37.27a6.69,6.69,0,0,0,.3,2.07A18.54,18.54,0,0,0,59.35,94a20.78,20.78,0,0,0,8.06,7.67,25.66,25.66,0,0,0,6.91,2.73,30,30,0,0,0,9.21.55,43.45,43.45,0,0,0,11.52-2.19h0a22.46,22.46,0,0,0,4.5-2.4A24.76,24.76,0,0,0,106,93.47,22.52,22.52,0,0,0,108.82,79.37ZM96,87.76a10,10,0,0,1-3.18,2.94,16.05,16.05,0,0,1-4.64,2.09,18,18,0,0,1-3.9.56A27.08,27.08,0,0,1,77,92.79a14.78,14.78,0,0,1-5-1.68,8.75,8.75,0,0,1-3.64-3.3,1.65,1.65,0,0,1-.21-.49l-.06-.12c-.24-.7-.08-.74,0-4l-.13-24a1.65,1.65,0,0,1,2.65-1.32l9.87,7.51c.46.31,1,.67,1.58,1.1,1.86,1.33,2.34,1.81,5,3.91,1.64,1.29,2.41,1.85,3.41,2.63l2.12,1.62a1.75,1.75,0,0,1,.35.37c2.39,2,3,2.74,3.6,3.77a8.24,8.24,0,0,1,1.12,3.91A8.59,8.59,0,0,1,96,87.76Z" transform="translate(0)"/><path class="cls-2" d="M62.61,0a5.12,5.12,0,0,0-.56,0,5.25,5.25,0,0,0-.56,0H5.59A5.61,5.61,0,0,0,0,5.59V98.94c0,.09,0,.18,0,.28s0,.18,0,.28a5.61,5.61,0,0,0,5.59,5.59H44.72a5.59,5.59,0,0,0,0-11.18H11.18v-.1a1,1,0,0,1-.56-.89V12.16a1,1,0,0,1,1-1H56a1,1,0,0,1,1,1v10.2a5.59,5.59,0,1,0,11.17,0V5.59A5.6,5.6,0,0,0,62.61,0Z" transform="translate(0)"/><rect class="cls-3" y="93.91" width="50.31" height="11.18" rx="5.59" ry="5.59" transform="translate(50.31 198.99) rotate(-180)"/><ellipse id="Combined-Shape" class="cls-4" cx="34.28" cy="31.12" rx="10.37" ry="10.27"/><text class="cls-5" transform="translate(121.5 71.96)"><tspan class="cls-6">T</tspan><tspan x="30" y="0">ag x00</tspan></text></svg>