<svg id="Layer_1" data-name="Layer 1" xmlns="http://www.w3.org/2000/svg" xmlns:xlink="http://www.w3.org/1999/xlink" viewBox="0 0 195 188"><defs><style>.cls-1{fill:url(#linear-gradient);}.cls-2{fill:url(#linear-gradient-2);}.cls-3{fill:url(#linear-gradient-3);}.cls-4{fill:url(#linear-gradient-4);}</style><linearGradient id="linear-gradient" x1="101.42" y1="130.3" x2="195" y2="130.3" gradientUnits="userSpaceOnUse"><stop offset="0" stop-color="#fa816e"/><stop offset="0.41" stop-color="#f74a5c"/><stop offset="1" stop-color="#f51d2c"/></linearGradient><linearGradient id="linear-gradient-2" y1="94" x2="122" y2="94" gradientUnits="userSpaceOnUse"><stop offset="0" stop-color="#4285eb"/><stop offset="1" stop-color="#2ec7ff"/></linearGradient><linearGradient id="linear-gradient-3" x1="-124" y1="6" x2="-34" y2="6" gradientTransform="translate(124 172)" xlink:href="#linear-gradient-2"/><linearGradient id="linear-gradient-4" x1="-185.16" y1="332.02" x2="-185.45" y2="330.84" gradientTransform="matrix(47.2, 0, 0, -47.16, 8808.79, 15682.82)" gradientUnits="userSpaceOnUse"><stop offset="0" stop-color="#fa8e7d"/><stop offset="0.51" stop-color="#f74a5c"/><stop offset="1" stop-color="#f51d2c"/></linearGradient></defs><title>Tagx002</title><path class="cls-1" d="M194.68,142a40.35,40.35,0,0,0-4-13,53.79,53.79,0,0,0-14.83-15.17c-.24-.2-.47-.41-.73-.6L120.88,74.83a12,12,0,0,0-19,9.71l-.5,66.67a12.09,12.09,0,0,0,.54,3.7,33.27,33.27,0,0,0,4.21,13.29c4.47,7.81,10.93,11.68,14.43,13.71a45.42,45.42,0,0,0,12.36,4.9c6.47,1.54,11.56,1.24,16.48,1a77.39,77.39,0,0,0,20.6-3.92h0a40.44,40.44,0,0,0,8.06-4.29,44.27,44.27,0,0,0,11.52-12.36A40.24,40.24,0,0,0,194.68,142Zm-23,15a17.74,17.74,0,0,1-5.68,5.26,28.87,28.87,0,0,1-8.3,3.74,31.75,31.75,0,0,1-7,1,48.28,48.28,0,0,1-13-1c-3.76-.8-6.13-1.31-9-3-2.18-1.29-5-3-6.51-5.91a2.84,2.84,0,0,1-.38-.87c0-.08-.07-.14-.1-.22-.43-1.25-.15-1.32,0-7.17L121.53,106a3,3,0,0,1,4.74-2.36L143.92,117c.83.55,1.77,1.2,2.84,2,3.32,2.38,4.18,3.24,9,7,2.94,2.3,4.32,3.31,6.11,4.71l3.8,2.89a2.71,2.71,0,0,1,.61.66c4.28,3.54,5.46,4.9,6.46,6.74a14.77,14.77,0,0,1,2,7A15.24,15.24,0,0,1,171.72,157Z"/><path class="cls-2" d="M112,0c-.34,0-.67,0-1,.05s-.66,0-1,0H10A10,10,0,0,0,0,10V177c0,.17,0,.33,0,.5s0,.33,0,.5a10,10,0,0,0,10,10H80a10,10,0,0,0,0-20H20v-.18a1.77,1.77,0,0,1-1-1.58V21.76A1.76,1.76,0,0,1,20.76,20h79.48A1.76,1.76,0,0,1,102,21.76V40a10,10,0,0,0,20,0V10A10,10,0,0,0,112,0Z"/><rect class="cls-3" y="168" width="90" height="20" rx="10" ry="10" transform="translate(90 356) rotate(180)"/><ellipse id="Combined-Shape" class="cls-4" cx="61.32" cy="55.67" rx="18.54" ry="18.37"/></svg>